<svg width="23" height="23" viewBox="0 0 23 23" fill="none" xmlns="http://www.w3.org/2000/svg">
<circle opacity="0.2" cx="11.4534" cy="11.4534" r="11.4534" fill="#5456F6"/>
<path d="M8.51811 16V14.6705L11.6246 11.794C11.8889 11.5384 12.1104 11.3082 12.2894 11.1037C12.4712 10.8991 12.609 10.6989 12.7028 10.5028C12.7965 10.304 12.8434 10.0895 12.8434 9.85938C12.8434 9.60369 12.7852 9.38352 12.6687 9.19886C12.5522 9.01136 12.3931 8.8679 12.1914 8.76847C11.9897 8.66619 11.761 8.61506 11.5053 8.61506C11.2383 8.61506 11.0053 8.66903 10.8065 8.77699C10.6076 8.88494 10.4542 9.03977 10.3462 9.24148C10.2383 9.44318 10.1843 9.68324 10.1843 9.96165H8.43288C8.43288 9.39062 8.56215 8.89489 8.82067 8.47443C9.07919 8.05398 9.44141 7.72869 9.90732 7.49858C10.3732 7.26847 10.9102 7.15341 11.5181 7.15341C12.1431 7.15341 12.6871 7.2642 13.1502 7.4858C13.6161 7.70455 13.9783 8.00852 14.2369 8.39773C14.4954 8.78693 14.6246 9.23295 14.6246 9.7358C14.6246 10.0653 14.5593 10.3906 14.4286 10.7116C14.3008 11.0327 14.0721 11.3892 13.7425 11.7812C13.413 12.1705 12.9485 12.6378 12.3491 13.1832L11.0749 14.4318V14.4915H14.7397V16H8.51811Z" fill="#5456F6"/>
</svg>
