<svg width="23" height="23" viewBox="0 0 23 23" fill="none" xmlns="http://www.w3.org/2000/svg">
<circle opacity="0.2" cx="11.4534" cy="11.4534" r="11.4534" fill="#5456F6"/>
<path d="M11.5682 16.1193C10.9318 16.1193 10.3651 16.0099 9.8679 15.7912C9.37358 15.5696 8.98296 15.2656 8.69602 14.8793C8.41193 14.4901 8.26563 14.0412 8.2571 13.5327H10.1151C10.1264 13.7457 10.196 13.9332 10.3239 14.0952C10.4545 14.2543 10.6278 14.3778 10.8438 14.4659C11.0597 14.554 11.3026 14.598 11.5724 14.598C11.8537 14.598 12.1023 14.5483 12.3182 14.4489C12.5341 14.3494 12.7031 14.2116 12.8253 14.0355C12.9474 13.8594 13.0085 13.6562 13.0085 13.4261C13.0085 13.1932 12.9432 12.9872 12.8125 12.8082C12.6847 12.6264 12.5 12.4844 12.2585 12.3821C12.0199 12.2798 11.7358 12.2287 11.4063 12.2287H10.5923V10.8736H11.4063C11.6847 10.8736 11.9304 10.8253 12.1435 10.7287C12.3594 10.6321 12.527 10.4986 12.6463 10.3281C12.7656 10.1548 12.8253 9.95312 12.8253 9.72301C12.8253 9.50426 12.7727 9.3125 12.6676 9.14773C12.5653 8.98011 12.4205 8.84943 12.233 8.75568C12.0483 8.66193 11.8324 8.61506 11.5852 8.61506C11.3352 8.61506 11.1065 8.66051 10.8991 8.75142C10.6918 8.83949 10.5256 8.96591 10.4006 9.13068C10.2756 9.29545 10.2088 9.48864 10.2003 9.71023H8.43182C8.44034 9.20739 8.58381 8.7642 8.86222 8.38068C9.14063 7.99716 9.51563 7.69744 9.98722 7.48153C10.4616 7.26278 10.9972 7.15341 11.5938 7.15341C12.196 7.15341 12.723 7.26278 13.1747 7.48153C13.6264 7.70028 13.9773 7.99574 14.2273 8.3679C14.4801 8.73722 14.6051 9.15199 14.6023 9.61222C14.6051 10.1009 14.4531 10.5085 14.1463 10.8352C13.8423 11.1619 13.446 11.3693 12.9574 11.4574V11.5256C13.5994 11.608 14.0881 11.831 14.4233 12.1946C14.7614 12.5554 14.929 13.0071 14.9261 13.5497C14.929 14.0469 14.7855 14.4886 14.4957 14.875C14.2088 15.2614 13.8125 15.5653 13.3068 15.7869C12.8011 16.0085 12.2216 16.1193 11.5682 16.1193Z" fill="#5456F6"/>
</svg>
