<svg width="20" height="20" viewBox="0 0 20 20" fill="none" xmlns="http://www.w3.org/2000/svg"><path fill-rule="evenodd" clip-rule="evenodd" d="M10 1.66699C7.23858 1.66699 5 3.90557 5 6.66699V8.45893C4.76449 8.51054 4.53845 8.58568 4.32003 8.69697C3.69283 9.01655 3.18289 9.52648 2.86331 10.1537C2.65724 10.5581 2.5751 10.9887 2.53683 11.4571C2.49998 11.9081 2.49999 12.4618 2.5 13.1326V13.5347C2.49999 14.2055 2.49998 14.7592 2.53683 15.2102C2.5751 15.6786 2.65724 16.1092 2.86331 16.5136C3.18289 17.1408 3.69283 17.6508 4.32003 17.9703C4.72448 18.1764 5.15506 18.2586 5.62348 18.2968C6.07448 18.3337 6.62812 18.3337 7.29894 18.3337H12.7011C13.3719 18.3337 13.9255 18.3337 14.3765 18.2968C14.8449 18.2586 15.2755 18.1764 15.68 17.9703C16.3072 17.6508 16.8171 17.1408 17.1367 16.5136C17.3428 16.1092 17.4249 15.6786 17.4632 15.2102C17.5 14.7592 17.5 14.2056 17.5 13.5348V13.1326C17.5 12.4618 17.5 11.9081 17.4632 11.4571C17.4249 10.9887 17.3428 10.5581 17.1367 10.1537C16.8171 9.52648 16.3072 9.01655 15.68 8.69697C15.4615 8.58568 15.2355 8.51054 15 8.45893V6.66699C15 3.90557 12.7614 1.66699 10 1.66699ZM13.3333 8.33501V6.66699C13.3333 4.82604 11.8409 3.33366 10 3.33366C8.15905 3.33366 6.66667 4.82604 6.66667 6.66699V8.33501C6.86476 8.33365 7.07532 8.33366 7.29891 8.33366H12.7011C12.9247 8.33366 13.1352 8.33365 13.3333 8.33501Z" fill="currentColor"></path></svg>