<svg width="627" height="142" viewBox="0 0 627 142" fill="none" xmlns="http://www.w3.org/2000/svg">
<g clip-path="url(#clip0_1454_51000)">
<path d="M-0.00111241 63.7181C0.0182334 63.4302 0.0375793 63.1615 0.0375793 62.8737C0.0375793 54.9089 0.0375793 46.9441 0.0375793 38.9793C0.0375793 38.4419 0.0375793 37.8853 0.0569251 37.348C0.076271 37.2904 0.0956168 37.2328 0.114963 37.1944C0.134309 36.9833 0.153654 36.753 0.153654 36.5419C0.637301 36.158 0.675992 35.5247 1.02422 35.0449C1.91413 33.7782 3.26834 33.1449 4.54516 32.3772C5.88003 31.5711 7.31162 30.8994 8.58844 29.9973C9.07209 29.863 9.47835 29.5943 9.86527 29.268C9.88461 29.2872 9.90396 29.268 9.92331 29.2488C10.0587 29.1913 10.2135 29.1529 10.3489 29.0761C15.108 26.3508 19.8864 23.6447 24.6262 20.9002C26.0577 20.0749 27.5474 19.3456 28.9016 18.386C29.0563 18.3092 29.2305 18.2709 29.3659 18.1749C31.8422 16.7739 34.2991 15.3536 36.7753 13.9526C38.5165 12.9738 40.2189 11.9182 41.9987 10.997C42.908 10.5364 43.7979 10.0374 44.5717 9.36565C45.0747 9.2505 45.5003 8.92423 45.9453 8.67473C47.9379 7.54239 49.9305 6.41005 51.9038 5.23932C52.755 4.74032 53.6643 4.33728 54.4381 3.72313C55.1152 3.41606 55.7536 3.07059 56.334 2.62917L56.3533 2.60998C57.34 2.14937 58.3073 1.66956 59.1778 0.978639C59.3519 0.997831 59.5067 0.90187 59.6615 0.825101C61.48 -0.230473 63.3952 -0.249665 65.2137 0.671563C67.0129 1.59279 68.7153 2.70594 70.4758 3.70394C74.1902 5.83428 77.9046 7.92624 81.5997 10.0566C85.1206 12.0718 88.6222 14.1253 92.1625 16.1213C93.5361 16.889 94.8516 17.7911 96.3219 18.386C97.3859 19.1921 98.6047 19.7487 99.7461 20.4204C103.925 22.877 108.123 25.3144 112.34 27.7134C115.629 29.5751 118.918 31.4176 122.168 33.3368C124.161 34.5075 125.147 36.2348 125.147 38.4995C125.147 48.5179 125.128 58.5362 125.128 68.5354C125.128 69.7637 125.147 71.0112 125.167 72.2395C125.167 72.3738 125.167 72.5082 125.167 72.6233C125.167 72.7193 125.167 72.7961 125.167 72.892C125.186 72.9688 125.186 73.0647 125.205 73.1415C125.108 75.387 125.167 77.6517 125.167 79.9164C125.167 87.0943 125.167 94.2722 125.167 101.45C125.167 102.832 125.205 104.214 124.76 105.557C123.986 107.169 122.632 108.129 121.123 108.954C119.846 109.645 118.55 110.317 117.37 111.161C116.616 111.468 115.939 111.891 115.281 112.37C113.849 113.061 112.495 113.867 111.16 114.712C111.083 114.75 111.005 114.808 110.928 114.846C110.812 114.885 110.676 114.923 110.56 114.981C107.349 116.823 104.138 118.646 100.946 120.508C99.4752 121.372 97.9469 122.12 96.5347 123.099C96.4379 123.099 96.3412 123.118 96.2832 123.233C96.0317 123.348 95.7608 123.464 95.5287 123.598C93.3619 124.826 91.2146 126.074 89.0478 127.302C87.0939 128.415 85.1593 129.624 83.1473 130.622C82.18 131.102 81.4642 132.081 80.2455 132.043C80.1294 132.043 80.11 132.1 80.0907 132.196C80.052 132.465 79.8199 132.561 79.6264 132.695C74.906 135.401 70.1856 138.107 65.4459 140.813C64.0917 141.581 62.6407 141.773 61.1318 141.408C59.7776 141.082 58.7135 140.199 57.5141 139.585C56.3727 138.99 55.328 138.242 54.1286 137.723C53.7416 137.378 53.316 137.109 52.7937 136.956H52.7744C51.6136 136.169 50.3948 135.44 49.0986 134.864C48.8278 134.729 48.5763 134.595 48.3055 134.461C47.7251 133.77 46.8545 133.482 46.1 133.041C45.2488 132.542 44.3783 132.043 43.5077 131.582C42.1341 130.853 40.8186 129.97 39.4064 129.317H39.387C39.329 129.164 39.1742 129.106 39.0388 129.029C37.259 128.012 35.4792 126.995 33.6994 125.978C32.4225 125.268 31.2231 124.442 29.8882 123.847C29.5787 123.56 29.2111 123.348 28.8049 123.214C28.7662 123.099 28.6694 123.08 28.5534 123.08C27.2959 122.254 25.9804 121.487 24.6068 120.834C24.5101 120.585 24.2392 120.527 24.0458 120.412C22.0338 119.241 20.0412 118.09 18.0099 116.957C16.733 116.247 15.5143 115.441 14.1794 114.827C14.0827 114.77 14.0053 114.731 13.9086 114.674C12.2642 113.618 10.5617 112.678 8.83994 111.756L8.82059 111.737C6.96339 110.547 5.00946 109.511 3.09422 108.398C1.1016 107.246 -0.0398041 105.596 -0.0398041 103.273C-0.0398041 94.3106 -0.0398041 85.3478 -0.05915 76.3658C-0.05915 74.7537 -0.0978417 73.1607 -0.117188 71.5486C-0.0398041 70.2435 -0.05915 68.9384 -0.117188 67.6333C-0.05915 66.6353 -0.05915 65.6373 -0.117188 64.6393C-0.117188 64.4666 -0.117188 64.2939 -0.117188 64.1212C0.0569251 63.9868 0.0569251 63.8525 -0.00111241 63.7181ZM18.7644 97.1702L18.7837 97.1894C18.7837 97.2662 18.8224 97.3046 18.8998 97.3046L18.9191 97.3238C18.9191 97.4005 18.9578 97.4389 19.0352 97.4389L19.0545 97.4581C19.1319 97.65 19.248 97.7652 19.4415 97.8228C19.4802 97.9379 19.5575 97.9763 19.6736 97.9955C19.693 98.0723 19.7317 98.1106 19.8284 98.1106H19.8477C19.8477 98.1874 19.8864 98.2066 19.9638 98.1874C20.0025 98.2066 20.0412 98.245 20.0799 98.2642C20.0992 98.3409 20.1573 98.3793 20.2346 98.3601C20.3314 98.4369 20.4474 98.5137 20.5442 98.5904C26.909 102.237 33.2737 105.883 39.6385 109.53C41.9407 110.835 44.2428 112.14 46.545 113.445C46.6417 113.599 46.7771 113.676 46.9706 113.695C47.0093 113.714 47.048 113.752 47.106 113.772C47.1447 113.791 47.1834 113.81 47.2221 113.829C47.2608 113.848 47.3188 113.887 47.3575 113.906C47.5123 114.059 47.6864 114.175 47.8992 114.213C48.054 114.462 48.2668 114.597 48.557 114.597C48.5763 114.635 48.5957 114.635 48.6343 114.635C48.7698 114.846 48.9439 115 49.2147 115C49.2534 115.173 49.3695 115.134 49.4856 115.115C49.5049 115.192 49.5243 115.211 49.6016 115.192C49.6403 115.211 49.6984 115.23 49.7371 115.249C49.7758 115.288 49.8338 115.326 49.8725 115.345L49.8918 115.364C50.5109 115.883 51.2654 116.19 51.9812 116.516C52.0005 116.554 52.0199 116.574 52.0586 116.554C52.0779 116.746 52.1746 116.823 52.3681 116.804C52.4068 116.957 52.5422 116.919 52.6389 116.938C52.697 117.149 52.8517 117.188 53.0452 117.188C53.3547 117.495 53.761 117.668 54.1866 117.783C54.767 118.32 55.4441 118.666 56.1792 118.934C57.3013 119.836 58.5975 120.45 59.8743 121.103C60.0677 121.333 60.3773 121.333 60.6481 121.429C60.7062 121.468 60.7835 121.544 60.8416 121.564C62.1184 121.909 63.3759 121.928 64.6334 121.429C64.8268 121.448 65.0009 121.372 65.1364 121.237C65.4072 121.237 65.62 121.141 65.7167 120.873C65.8328 120.815 65.9489 120.777 66.065 120.719C66.4132 120.662 66.626 120.412 66.8581 120.201C66.9549 120.163 67.0709 120.143 67.1677 120.086C72.7199 116.919 78.2915 113.752 83.8438 110.547C88.0031 108.148 92.1818 105.768 96.3412 103.389C99.1657 101.796 101.951 100.145 104.776 98.5329C106.923 97.3046 107.968 95.4813 107.949 93.0247C107.929 90.7984 107.949 88.5721 107.949 86.365C107.949 83.4286 105.898 81.0679 102.996 80.6265C100.249 80.2043 97.5793 81.7972 96.6894 84.369C96.3219 85.4054 96.4186 86.4993 96.2832 87.5741C96.0897 89.167 95.4126 90.4529 94.0777 91.3166C91.4467 93.0247 88.6996 94.5217 85.9912 96.0763C79.1621 99.9723 72.3524 103.907 65.5233 107.784C63.6467 108.858 61.7121 108.82 59.8162 107.803C58.9457 107.342 58.1138 106.824 57.2432 106.344C48.7698 101.488 40.2963 96.6328 31.8228 91.7772C29.9076 90.664 28.9209 88.9943 28.9016 86.7872C28.8822 84.8104 28.8822 82.8336 28.8629 80.8376C28.9983 80.281 28.9209 79.7053 28.9016 79.1487C28.9596 78.976 28.9403 78.8032 28.8822 78.6305C28.8822 78.4578 28.8822 78.285 28.8822 78.1123C28.9016 77.9012 28.9016 77.6709 28.9209 77.4598C28.979 77.2295 28.9209 77.0184 28.8822 76.8072C28.9403 75.8476 28.9596 74.9072 28.8822 73.9476C28.9016 73.7749 28.9016 73.6021 28.9209 73.4102C28.9983 72.7577 29.037 72.1051 28.9016 71.4526C28.9016 71.2799 28.9016 71.1071 28.9016 70.9152C28.9596 70.3586 28.9596 69.7829 28.9016 69.2263C28.9016 69.0152 28.9209 68.7849 28.9209 68.5738C29.0177 68.0172 29.037 67.4414 28.9016 66.8848C28.9209 63.8333 28.9403 60.7625 28.9403 57.7109C28.9403 56.7513 28.9209 55.8109 28.9016 54.8513C28.9209 54.5058 28.9403 54.1604 28.9596 53.8149C29.037 53.5846 29.1144 53.3735 29.1918 53.1432C29.6174 51.7422 30.4493 50.6482 31.7067 49.9189C36.8721 46.9441 42.0568 43.9693 47.2221 40.9945C48.17 40.4571 49.1567 39.9581 50.0272 39.3056C50.4722 39.2288 50.8011 38.9217 51.1687 38.7106C53.9351 37.1368 56.7016 35.5247 59.468 33.9509C61.0737 33.0297 62.7568 32.7226 64.556 33.4136C65.9102 33.9317 67.1096 34.7762 68.3671 35.4863C71.6559 37.3288 74.9447 39.2096 78.2335 41.0713C80.4196 42.3188 82.5863 43.6238 84.7724 44.8905C87.771 46.6178 90.8083 48.3067 93.8069 50.0532C95.1998 50.8593 95.993 52.1644 96.2832 53.6806C96.554 55.0624 96.3992 56.4826 96.4379 57.9029C96.4573 58.4403 96.4379 59.0352 96.6314 59.515C97.6567 62.0292 99.572 63.6222 102.493 63.4878C105.453 63.3535 107.91 61.0504 108.007 58.0372C108.103 54.6786 108.084 51.3391 108.007 47.9805C107.968 46.234 107.233 44.7178 105.801 43.6814C104.892 43.0289 103.867 42.5107 102.899 41.9349C100.346 40.4571 97.7728 38.9985 95.1998 37.5399C94.2132 36.9833 93.2846 36.3692 92.2399 35.9085C92.1818 35.851 92.1432 35.755 92.0658 35.7166C89.2026 34.0853 86.3394 32.4539 83.4956 30.8226C80.3228 28.9993 77.1888 27.1569 74.0161 25.3336C72.6425 24.5467 71.2496 23.7982 69.8567 23.0497C69.7987 23.0305 69.76 22.9922 69.702 22.973C69.6633 22.9538 69.6052 22.9154 69.5666 22.8962C69.4311 22.8386 69.2957 22.781 69.1603 22.7235C68.9862 22.4164 68.6573 22.3204 68.3865 22.1669C67.3998 21.6103 66.3938 21.1113 65.4459 20.5164C63.9563 19.5759 62.4086 19.5376 60.8222 20.1133C59.468 20.6123 58.3073 21.4952 57.0691 22.1861C56.1599 22.6851 55.2119 23.0881 54.4188 23.7598C54.3027 23.7598 54.2253 23.7982 54.1673 23.9134C52.6196 24.5851 51.2073 25.4488 49.8144 26.3892C49.7758 26.4084 49.7177 26.4276 49.679 26.4468C49.6016 26.4084 49.563 26.4468 49.563 26.5235C49.5049 26.5619 49.4469 26.6003 49.3888 26.6387C49.3501 26.6387 49.3115 26.6387 49.2921 26.6771C49.1373 26.6771 49.0213 26.7346 48.9632 26.8882C48.8278 26.8882 48.7117 26.965 48.6343 27.0609C48.3635 27.1185 48.1314 27.2145 47.9766 27.4448C47.8412 27.5215 47.7057 27.5983 47.5703 27.6751C47.5123 27.6367 47.4929 27.6751 47.5123 27.7326C45.7712 28.7114 44.03 29.6903 42.2889 30.6691C37.7813 33.2408 33.2931 35.8318 28.7855 38.4035C25.9804 40.0157 23.1365 41.5703 20.3314 43.2016C19.248 43.8349 18.3001 44.6986 17.9325 45.9845C17.7971 46.0996 17.681 46.2148 17.7584 46.4067C17.739 46.5027 17.7003 46.5794 17.681 46.6754C17.5069 46.9057 17.4682 47.1744 17.5262 47.4623C17.3715 47.7885 17.4295 48.1532 17.4295 48.4987C17.4295 54.122 17.4295 59.7453 17.4295 65.3687C17.4295 65.5798 17.4488 65.8101 17.4682 66.0212C17.4682 66.1939 17.4488 66.3666 17.4488 66.5586C17.3715 67.1151 17.3908 67.6909 17.4295 68.2667C17.4488 68.4778 17.4488 68.7081 17.4682 68.9192C17.4682 69.7829 17.4682 70.6657 17.4682 71.5294C17.4488 71.7981 17.4488 72.0476 17.4295 72.3162C17.3908 72.8728 17.3521 73.4486 17.4682 74.0052C17.4682 74.1779 17.4682 74.3506 17.4875 74.5234C17.4295 75.2719 17.4295 76.0012 17.4875 76.7497C17.3521 77.1911 17.4488 77.6325 17.4875 78.0547C17.4682 78.1891 17.4488 78.3042 17.4488 78.4386C17.4488 83.4478 17.4488 88.4761 17.4488 93.4853C17.4488 93.6964 17.4875 93.9075 17.5069 94.1186C17.4488 94.2146 17.4488 94.3106 17.5649 94.3873C17.5843 94.4833 17.6036 94.5601 17.6036 94.656C17.5649 94.7712 17.5649 94.848 17.681 94.9247C17.7003 95.0015 17.7197 95.0783 17.739 95.1742C17.7197 95.3853 17.7971 95.5773 17.9518 95.7308C18.0099 96.0763 18.2033 96.3641 18.4161 96.6328C18.3968 96.7096 18.4161 96.7288 18.4935 96.748C18.5322 96.9399 18.6676 97.0551 18.8224 97.1702C18.6483 97.151 18.687 97.1702 18.7644 97.1702ZM46.1581 70.7617C46.1581 72.7577 46.1581 74.7729 46.1581 76.7689C46.1581 79.1103 47.2028 80.8568 49.2341 82.0083C52.7357 84.0043 56.2179 86.0195 59.7389 87.9963C61.6154 89.0711 63.5693 89.0903 65.4459 88.0347C69.0636 86.0003 72.6425 83.9468 76.2215 81.874C78.0981 80.78 79.0654 79.1295 79.0847 76.98C79.1234 72.8344 79.1234 68.7081 79.0847 64.5626C79.0654 62.4322 78.0787 60.7817 76.2409 59.7261C72.7006 57.6726 69.1409 55.6574 65.5813 53.623C63.6274 52.5098 61.6541 52.5098 59.7002 53.623C56.1792 55.619 52.6583 57.6342 49.1373 59.6494C47.1447 60.8009 46.1387 62.5282 46.1581 64.8121C46.1581 66.7889 46.1581 68.7657 46.1581 70.7617Z" fill="white"/>
</g>
<path d="M199.706 98.4212C208.099 98.4212 217.905 95.7159 223.971 86.3976L214.497 80.461C211.09 84.9698 206.187 87.1491 200.204 87.1491C190.648 87.1491 182.67 81.1373 182.67 70.9924C182.67 60.9978 190.482 54.8357 200.121 54.8357C205.855 54.8357 211.09 57.015 214.497 61.5238L223.971 55.5872C217.905 46.2689 208.182 43.5636 199.789 43.5636C183.169 43.5636 169.125 54.3097 169.125 70.9924C169.125 87.6751 183.086 98.4212 199.706 98.4212Z" fill="white"/>
<path d="M277.373 97.6697H291.251L277.789 78.432C284.188 75.6515 288.093 70.3161 288.093 62.8013C288.093 51.4541 279.451 44.3151 266.903 44.3151H245.463V97.6697H258.593V80.461H265.739L277.373 97.6697ZM258.593 70.3161V55.2114H265.573C270.892 55.2114 274.797 57.0901 274.797 62.8013C274.797 68.5125 270.892 70.3161 265.573 70.3161H258.593Z" fill="white"/>
<path d="M331.158 44.3151L308.638 97.6697H322.848L326.172 89.1781H350.105L353.429 97.6697H367.639L345.119 44.3151H331.158ZM330.577 78.2065L338.139 58.9688L345.701 78.2065H330.577Z" fill="white"/>
<path d="M387.469 97.6697H410.405C426.194 97.6697 438.659 86.6231 438.659 70.9924C438.659 55.3617 426.194 44.3151 410.405 44.3151H387.469V97.6697ZM400.599 86.4728V55.512H409.906C419.878 55.512 425.03 61.8996 425.03 70.9924C425.03 80.0852 419.878 86.4728 409.906 86.4728H400.599Z" fill="white"/>
<path d="M460.217 97.6697H495.285V86.7733H473.347V44.3151H460.217V97.6697Z" fill="white"/>
<path d="M570.677 44.3151L546.993 97.6697H552.561L558.544 84.068H587.795L593.779 97.6697H599.346L575.663 44.3151H570.677ZM560.456 79.7095L573.17 50.5523L585.884 79.7095H560.456Z" fill="white"/>
<path d="M621.848 97.6697H627V44.3151H621.848V97.6697Z" fill="white"/>
<path d="M510.922 58.2174H525.464V71.3682H510.922V58.2174Z" fill="white"/>
<defs>
<clipPath id="clip0_1454_51000">
<rect width="125.245" height="141.581" fill="white"/>
</clipPath>
</defs>
</svg>
