<svg width="195" height="29" viewBox="0 0 195 29" fill="none" xmlns="http://www.w3.org/2000/svg">
<mask id="mask0_11648_107476" style="mask-type:luminance" maskUnits="userSpaceOnUse" x="0" y="0" width="24" height="28">
<path d="M23.616 0H0V27.0511H23.616V0Z" fill="white"/>
</mask>
<g mask="url(#mask0_11648_107476)">
<path d="M5.1681e-05 12.1741C0.00369951 12.1191 0.00734734 12.0677 0.00734734 12.0127C0.00734734 10.4909 0.00734734 8.96915 0.00734734 7.44736C0.00734734 7.34469 0.00734734 7.23835 0.0109952 7.13568C0.014643 7.12467 0.0182909 7.11367 0.0219386 7.10634C0.0255865 7.066 0.0292343 7.022 0.0292343 6.98166C0.12043 6.90833 0.127726 6.78731 0.193387 6.69564C0.361187 6.45362 0.616535 6.33261 0.857292 6.18594C1.109 6.03192 1.37893 5.90358 1.61969 5.73123C1.71089 5.70556 1.78749 5.65422 1.86044 5.59189C1.86409 5.59555 1.86774 5.59189 1.87139 5.58822C1.89692 5.57722 1.92611 5.56988 1.95164 5.55521C2.849 5.03451 3.75002 4.51747 4.64374 3.99309C4.91367 3.83541 5.19456 3.69607 5.44991 3.51272C5.47909 3.49805 5.51193 3.49072 5.53746 3.47239C6.00438 3.2047 6.46765 2.93334 6.93458 2.66565C7.26288 2.47864 7.58389 2.27696 7.91949 2.10094C8.09094 2.01294 8.25874 1.9176 8.40465 1.78925C8.49949 1.76725 8.57974 1.70491 8.66364 1.65724C9.03936 1.44089 9.41508 1.22454 9.78714 1.00086C9.94768 0.905518 10.1191 0.828512 10.265 0.71117C10.3927 0.652498 10.5131 0.586493 10.6226 0.502153L10.6261 0.498487C10.8123 0.41048 10.9946 0.318805 11.1587 0.186795C11.1916 0.190462 11.2208 0.172128 11.25 0.157459C11.5929 -0.044223 11.954 -0.0478899 12.2969 0.128124C12.6361 0.304138 12.9571 0.516821 13.2891 0.707503C13.9895 1.11453 14.6899 1.51423 15.3866 1.92127C16.0505 2.3063 16.7108 2.69866 17.3783 3.08003C17.6373 3.2267 17.8854 3.39904 18.1626 3.51272C18.3632 3.66673 18.5931 3.77307 18.8083 3.90142C19.5962 4.37079 20.3878 4.83649 21.183 5.29487C21.8031 5.65056 22.4233 6.00258 23.0361 6.36928C23.4118 6.59297 23.5979 6.92299 23.5979 7.35569C23.5979 9.26985 23.5942 11.184 23.5942 13.0945C23.5942 13.3291 23.5979 13.5675 23.6015 13.8022C23.6015 13.8278 23.6015 13.8536 23.6015 13.8755C23.6015 13.8939 23.6015 13.9086 23.6015 13.9269C23.6052 13.9416 23.6052 13.9599 23.6088 13.9746C23.5905 14.4036 23.6015 14.8363 23.6015 15.269C23.6015 16.6404 23.6015 18.0119 23.6015 19.3833C23.6015 19.6473 23.6088 19.9113 23.5249 20.1681C23.379 20.4761 23.1237 20.6594 22.8391 20.8171C22.5983 20.9491 22.354 21.0775 22.1314 21.2388C21.9892 21.2974 21.8615 21.3782 21.7375 21.4698C21.4676 21.6018 21.2122 21.7558 20.9605 21.9172C20.9459 21.9245 20.9313 21.9355 20.9167 21.9428C20.8948 21.9502 20.8693 21.9575 20.8474 21.9685C20.2418 22.3205 19.6363 22.6688 19.0344 23.0246C18.7572 23.1896 18.469 23.3326 18.2027 23.5196C18.1845 23.5196 18.1663 23.5233 18.1553 23.5453C18.1079 23.5673 18.0568 23.5893 18.0131 23.615C17.6044 23.8497 17.1996 24.088 16.791 24.3227C16.4226 24.5354 16.0578 24.7664 15.6784 24.957C15.4961 25.0487 15.3611 25.2358 15.1312 25.2285C15.1093 25.2285 15.1058 25.2394 15.1021 25.2577C15.0948 25.3091 15.051 25.3274 15.0145 25.3531C14.1245 25.8702 13.2344 26.3872 12.3406 26.9042C12.0853 27.0509 11.8117 27.0875 11.5272 27.0179C11.2719 26.9556 11.0712 26.7868 10.8451 26.6696C10.6298 26.5558 10.4329 26.4128 10.2067 26.3139C10.1337 26.2478 10.0535 26.1965 9.95501 26.1672H9.95134C9.73249 26.0168 9.50264 25.8775 9.25821 25.7675C9.20714 25.7418 9.15974 25.7161 9.10867 25.6905C8.9992 25.5584 8.83509 25.5034 8.69283 25.4191C8.53232 25.3238 8.36817 25.2285 8.20402 25.1405C7.94502 25.0011 7.69697 24.8324 7.43068 24.7077H7.42703C7.41608 24.6784 7.38691 24.6674 7.36137 24.6527C7.02577 24.4583 6.69017 24.264 6.35457 24.0696C6.11382 23.934 5.88765 23.7763 5.63595 23.6626C5.57758 23.6076 5.50828 23.5673 5.43167 23.5417C5.42438 23.5196 5.40613 23.5159 5.38425 23.5159C5.14714 23.3583 4.89909 23.2116 4.64009 23.0869C4.62185 23.0392 4.57078 23.0283 4.5343 23.0062C4.15493 22.7826 3.77921 22.5625 3.39618 22.3462C3.15542 22.2106 2.92561 22.0565 2.67391 21.9391C2.65567 21.9282 2.64108 21.9208 2.62285 21.9099C2.31278 21.7081 1.99176 21.5285 1.66711 21.3524L1.66346 21.3488C1.31327 21.1214 0.944835 20.9234 0.583704 20.7107C0.207978 20.4907 -0.00724398 20.1754 -0.00724398 19.7317C-0.00724398 18.0191 -0.00724398 16.3067 -0.0108918 14.5906C-0.0108918 14.2826 -0.0181875 13.9782 -0.0218353 13.6701C-0.00724398 13.4208 -0.0108918 13.1714 -0.0218353 12.9221C-0.0108918 12.7315 -0.0108918 12.5408 -0.0218353 12.3501C-0.0218353 12.3171 -0.0218353 12.284 -0.0218353 12.2511C0.0109952 12.2254 0.0109952 12.1998 5.1681e-05 12.1741ZM3.53844 18.5655L3.54209 18.5692C3.54209 18.5839 3.54939 18.5913 3.56398 18.5913L3.56763 18.5949C3.56763 18.6096 3.57492 18.6169 3.58951 18.6169L3.59316 18.6205C3.60776 18.6572 3.62964 18.6793 3.66612 18.6902C3.67341 18.7122 3.68801 18.7196 3.70989 18.7232C3.71354 18.7379 3.72084 18.7452 3.73908 18.7452H3.74273C3.74273 18.7599 3.75002 18.7635 3.76461 18.7599C3.77191 18.7635 3.77921 18.7709 3.7865 18.7746C3.79014 18.7893 3.80109 18.7966 3.81568 18.7929C3.83392 18.8076 3.85581 18.8223 3.87405 18.837C5.07418 19.5337 6.27432 20.2304 7.47445 20.9271C7.90855 21.1764 8.34264 21.4258 8.77673 21.6751C8.79496 21.7045 8.8205 21.7192 8.85698 21.7228C8.86428 21.7265 8.87158 21.7338 8.88251 21.7375C8.88981 21.7411 8.89711 21.7448 8.9044 21.7485C8.9117 21.7522 8.92264 21.7595 8.92993 21.7631C8.95913 21.7925 8.99196 21.8145 9.03211 21.8219C9.06127 21.8695 9.10143 21.8952 9.15607 21.8952C9.15974 21.9025 9.16341 21.9025 9.17065 21.9025C9.19623 21.9429 9.22905 21.9722 9.28012 21.9722C9.28746 22.0052 9.30928 21.9979 9.33119 21.9941C9.33486 22.0088 9.33852 22.0125 9.3531 22.0088C9.36035 22.0125 9.37135 22.0162 9.37859 22.0199C9.38593 22.0271 9.39684 22.0345 9.40417 22.0382L9.40784 22.0418C9.52455 22.1409 9.66676 22.1995 9.80181 22.2619C9.80538 22.2692 9.80905 22.2728 9.81638 22.2692C9.82005 22.3059 9.83821 22.3205 9.8747 22.3169C9.88203 22.3462 9.90752 22.3389 9.92577 22.3425C9.93677 22.3828 9.96592 22.3902 10.0024 22.3902C10.0607 22.4489 10.1374 22.4819 10.2176 22.5039C10.3271 22.6066 10.4547 22.6726 10.5933 22.7239C10.8049 22.8962 11.0494 23.0136 11.2901 23.1383C11.3265 23.1822 11.3849 23.1822 11.436 23.2006C11.4469 23.208 11.4616 23.2226 11.4725 23.2263C11.7132 23.2923 11.9503 23.296 12.1874 23.2006C12.2239 23.2043 12.2568 23.1896 12.2823 23.1639C12.3334 23.1639 12.3735 23.1456 12.3917 23.0942C12.4136 23.0833 12.4355 23.0759 12.4574 23.0649C12.523 23.0539 12.5632 23.0062 12.607 22.9659C12.6252 22.9586 12.6471 22.9549 12.6653 22.9439C13.7122 22.3389 14.7629 21.7338 15.8097 21.1214C16.5941 20.663 17.3819 20.2084 18.1663 19.7536C18.6988 19.4493 19.2241 19.1339 19.7567 18.8259C20.1616 18.5913 20.3585 18.2429 20.355 17.7735C20.3513 17.3482 20.355 16.9228 20.355 16.5011C20.355 15.94 19.9682 15.489 19.4211 15.4046C18.9031 15.324 18.3997 15.6284 18.2319 16.1197C18.1626 16.3178 18.1809 16.5267 18.1553 16.7321C18.1188 17.0364 17.9912 17.2821 17.7395 17.4471C17.2434 17.7735 16.7254 18.0596 16.2147 18.3565C14.927 19.1009 13.6429 19.8527 12.3552 20.5934C12.0014 20.7987 11.6366 20.7914 11.2791 20.5971C11.115 20.5091 10.9581 20.41 10.794 20.3184C9.19623 19.3907 7.59848 18.4629 6.00073 17.5351C5.6396 17.3225 5.45356 17.0034 5.44991 16.5817C5.44626 16.204 5.44626 15.8264 5.44261 15.445C5.46815 15.3386 5.45356 15.2286 5.44991 15.1223C5.46085 15.0893 5.45721 15.0563 5.44626 15.0233C5.44626 14.9903 5.44626 14.9573 5.44626 14.9243C5.44991 14.884 5.44991 14.8399 5.45356 14.7996C5.4645 14.7556 5.45356 14.7152 5.44626 14.6749C5.45721 14.4916 5.46085 14.3119 5.44626 14.1285C5.44991 14.0955 5.44991 14.0626 5.45356 14.0258C5.46815 13.9012 5.47544 13.7765 5.44991 13.6518C5.44991 13.6189 5.44991 13.5859 5.44991 13.5492C5.46085 13.4429 5.46085 13.3328 5.44991 13.2264C5.44991 13.1861 5.45356 13.1422 5.45356 13.1018C5.47179 12.9954 5.47544 12.8854 5.44991 12.7791C5.45356 12.196 5.45721 11.6093 5.45721 11.0263C5.45721 10.843 5.45356 10.6633 5.44991 10.48C5.45356 10.4139 5.45721 10.3479 5.46085 10.282C5.47544 10.2379 5.49003 10.1976 5.50463 10.1535C5.58488 9.88592 5.74173 9.67685 5.97885 9.53756C6.95281 8.96915 7.93043 8.40077 8.9044 7.83239C9.08318 7.72972 9.26921 7.63438 9.43333 7.5097C9.51722 7.49503 9.57929 7.43636 9.6486 7.39602C10.1702 7.09534 10.6919 6.78731 11.2135 6.48662C11.5162 6.31061 11.8336 6.25194 12.1729 6.38395C12.4282 6.48296 12.6544 6.6443 12.8915 6.77998C13.5116 7.13201 14.1317 7.49137 14.7519 7.84706C15.1641 8.08542 15.5726 8.33476 15.9848 8.57679C16.5502 8.90682 17.123 9.22952 17.6884 9.5632C17.951 9.71717 18.1005 9.96657 18.1553 10.2562C18.2063 10.5203 18.1772 10.7916 18.1845 11.063C18.1881 11.1656 18.1845 11.2794 18.2209 11.371C18.4143 11.8514 18.7754 12.1557 19.3263 12.1301C19.8844 12.1044 20.3476 11.6643 20.3659 11.0887C20.3841 10.447 20.3805 9.80889 20.3659 9.16717C20.3585 8.83347 20.22 8.54378 19.95 8.34576C19.7785 8.22109 19.5853 8.12208 19.4028 8.01207C18.9213 7.72972 18.4362 7.45103 17.951 7.17234C17.765 7.066 17.5899 6.94866 17.3929 6.86065C17.3819 6.84966 17.3747 6.83131 17.3601 6.82398C16.8202 6.51229 16.2803 6.2006 15.7441 5.88891C15.1458 5.54055 14.5549 5.18852 13.9567 4.84016C13.6977 4.68982 13.435 4.5468 13.1724 4.4038C13.1614 4.40012 13.1542 4.39279 13.1432 4.38912C13.1359 4.38546 13.1249 4.37812 13.1177 4.37446C13.0921 4.36346 13.0666 4.35246 13.041 4.34145C13.0082 4.28278 12.9462 4.26445 12.8952 4.23511C12.7091 4.12878 12.5194 4.03343 12.3406 3.91976C12.0598 3.74008 11.768 3.73274 11.4688 3.84274C11.2135 3.93809 10.9946 4.10677 10.7611 4.23878C10.5897 4.33412 10.411 4.41113 10.2614 4.53947C10.2395 4.53947 10.2249 4.5468 10.2139 4.56881C9.92219 4.69715 9.65585 4.86216 9.39317 5.04184C9.38593 5.04551 9.37501 5.04918 9.36768 5.05284C9.3531 5.04551 9.34577 5.05284 9.34577 5.06751C9.33486 5.07485 9.32395 5.08218 9.31295 5.08951C9.3057 5.08951 9.29837 5.08951 9.2947 5.09685C9.26554 5.09685 9.24363 5.10785 9.23272 5.13719C9.20714 5.13719 9.18532 5.15185 9.17065 5.17018C9.11958 5.18119 9.07585 5.19952 9.04669 5.24353C9.02111 5.25819 8.99562 5.27286 8.97005 5.28752C8.95913 5.28019 8.95547 5.28752 8.95913 5.29853C8.63081 5.48554 8.30251 5.67256 7.97421 5.85958C7.12426 6.35095 6.27797 6.84598 5.42802 7.33735C4.89909 7.64538 4.36285 7.9424 3.83392 8.2541C3.62964 8.3751 3.45089 8.54012 3.38159 8.7858C3.35606 8.80781 3.33417 8.8298 3.34876 8.86648C3.34511 8.88481 3.33782 8.89947 3.33417 8.91782C3.30134 8.96182 3.29404 9.01315 3.30499 9.06812C3.2758 9.13047 3.28674 9.20016 3.28674 9.26613C3.28674 10.3406 3.28674 11.415 3.28674 12.4894C3.28674 12.5297 3.29039 12.5738 3.29404 12.6141C3.29404 12.6471 3.29039 12.6801 3.29039 12.7168C3.2758 12.8231 3.27945 12.9331 3.28674 13.0431C3.29039 13.0834 3.29039 13.1275 3.29404 13.1678C3.29404 13.3328 3.29404 13.5015 3.29404 13.6665C3.29039 13.7178 3.29039 13.7655 3.28674 13.8169C3.27945 13.9232 3.27215 14.0332 3.29404 14.1396C3.29404 14.1726 3.29404 14.2056 3.29769 14.2385C3.28674 14.3816 3.28674 14.5209 3.29769 14.6639C3.27215 14.7483 3.29039 14.8326 3.29769 14.9132C3.29404 14.939 3.29039 14.9609 3.29039 14.9867C3.29039 15.9437 3.29039 16.9045 3.29039 17.8616C3.29039 17.9019 3.29769 17.9422 3.30134 17.9825C3.29039 18.0008 3.29039 18.0192 3.31229 18.0338C3.31593 18.0522 3.31957 18.0669 3.31957 18.0852C3.31228 18.1072 3.31228 18.1218 3.33417 18.1365C3.33782 18.1512 3.34146 18.1659 3.34511 18.1842C3.34146 18.2245 3.35606 18.2612 3.38524 18.2906C3.39618 18.3565 3.43266 18.4116 3.47279 18.4629C3.46914 18.4775 3.47279 18.4812 3.48738 18.4849C3.49467 18.5216 3.52021 18.5436 3.54939 18.5655C3.51656 18.5619 3.52386 18.5655 3.53844 18.5655ZM8.70377 13.5198C8.70377 13.9012 8.70377 14.2862 8.70377 14.6676C8.70377 15.115 8.90076 15.4487 9.28379 15.6687C9.94401 16.0501 10.6007 16.435 11.2645 16.8128C11.6184 17.0181 11.9868 17.0218 12.3406 16.8201C13.0228 16.4314 13.6977 16.0391 14.3725 15.6431C14.7264 15.434 14.9087 15.1186 14.9124 14.7079C14.9196 13.9158 14.9196 13.1275 14.9124 12.3354C14.9087 11.9284 14.7227 11.613 14.3761 11.4113C13.7086 11.019 13.0374 10.6339 12.3662 10.2452C11.9977 10.0326 11.6257 10.0326 11.2572 10.2452C10.5933 10.6266 9.92943 11.0117 9.26554 11.3966C8.88981 11.6167 8.70013 11.9467 8.70377 12.3831C8.70377 12.7608 8.70377 13.1384 8.70377 13.5198Z" fill="#272A2F"/>
</g>
<path d="M38.1278 18.8049C39.7154 18.8049 41.5701 18.2879 42.7175 16.5075L40.9257 15.3733C40.2812 16.2347 39.3538 16.6512 38.2221 16.6512C36.4145 16.6512 34.9056 15.5025 34.9056 13.5642C34.9056 11.6546 36.3831 10.4772 38.2064 10.4772C39.2909 10.4772 40.2812 10.8936 40.9257 11.7551L42.7175 10.6208C41.5701 8.8404 39.7311 8.32352 38.1436 8.32352C34.9999 8.32352 32.3435 10.3767 32.3435 13.5642C32.3435 16.7517 34.9841 18.8049 38.1278 18.8049Z" fill="#272A2F"/>
<path d="M52.8187 18.6612H55.4436L52.8972 14.9857C54.1075 14.4544 54.8463 13.435 54.8463 11.9992C54.8463 9.8311 53.2116 8.4671 50.8381 8.4671H46.7829V18.6612H49.2663V15.3733H50.6181L52.8187 18.6612ZM49.2663 13.435V10.549H50.5867C51.5926 10.549 52.3314 10.908 52.3314 11.9992C52.3314 13.0903 51.5926 13.435 50.5867 13.435H49.2663Z" fill="#272A2F"/>
<path d="M62.9921 8.4671L58.7324 18.6612H61.4202L62.049 17.0388H66.5758L67.2045 18.6612H69.8924L65.6327 8.4671H62.9921ZM62.8821 14.9425L64.3124 11.2669L65.7428 14.9425H62.8821Z" fill="#272A2F"/>
<path d="M73.6433 18.6612H77.9816C80.9681 18.6612 83.3258 16.5507 83.3258 13.5642C83.3258 10.5778 80.9681 8.4671 77.9816 8.4671H73.6433V18.6612ZM76.1268 16.5219V10.6065H77.8872C79.7734 10.6065 80.7479 11.8268 80.7479 13.5642C80.7479 15.3015 79.7734 16.5219 77.8872 16.5219H76.1268Z" fill="#272A2F"/>
<path d="M87.4036 18.6612H94.0364V16.5794H89.8874V8.4671H87.4036V18.6612Z" fill="#272A2F"/>
<path d="M108.297 8.4671L103.817 18.6612H104.871L106.002 16.0625H111.535L112.667 18.6612H113.72L109.24 8.4671H108.297ZM106.363 15.2297L108.768 9.65882L111.173 15.2297H106.363Z" fill="#272A2F"/>
<path d="M117.976 18.6612H118.951V8.4671H117.976V18.6612Z" fill="#272A2F"/>
<path d="M96.9931 11.1233H99.7433V13.636H96.9931V11.1233Z" fill="#272A2F"/>
<path d="M159.045 19H155.278V7.36364H159.165C160.305 7.36364 161.284 7.59659 162.102 8.0625C162.92 8.52462 163.547 9.18939 163.983 10.0568C164.422 10.9205 164.642 11.9564 164.642 13.1648C164.642 14.3769 164.42 15.4186 163.977 16.2898C163.538 17.161 162.902 17.8314 162.068 18.3011C161.235 18.767 160.227 19 159.045 19ZM157.034 17.4659H158.949C159.835 17.4659 160.572 17.2992 161.159 16.9659C161.746 16.6288 162.186 16.142 162.477 15.5057C162.769 14.8655 162.915 14.0852 162.915 13.1648C162.915 12.2519 162.769 11.4773 162.477 10.8409C162.189 10.2045 161.759 9.72159 161.188 9.39205C160.616 9.0625 159.905 8.89773 159.057 8.89773H157.034V17.4659ZM170.365 19.1761C169.547 19.1761 168.833 18.9886 168.223 18.6136C167.613 18.2386 167.14 17.714 166.803 17.0398C166.465 16.3655 166.297 15.5777 166.297 14.6761C166.297 13.7708 166.465 12.9792 166.803 12.3011C167.14 11.6231 167.613 11.0966 168.223 10.7216C168.833 10.3466 169.547 10.1591 170.365 10.1591C171.183 10.1591 171.897 10.3466 172.507 10.7216C173.117 11.0966 173.59 11.6231 173.928 12.3011C174.265 12.9792 174.433 13.7708 174.433 14.6761C174.433 15.5777 174.265 16.3655 173.928 17.0398C173.59 17.714 173.117 18.2386 172.507 18.6136C171.897 18.9886 171.183 19.1761 170.365 19.1761ZM170.371 17.75C170.901 17.75 171.34 17.6098 171.689 17.3295C172.037 17.0492 172.295 16.6761 172.462 16.2102C172.632 15.7443 172.717 15.2311 172.717 14.6705C172.717 14.1136 172.632 13.6023 172.462 13.1364C172.295 12.6667 172.037 12.2898 171.689 12.0057C171.34 11.7216 170.901 11.5795 170.371 11.5795C169.837 11.5795 169.393 11.7216 169.041 12.0057C168.693 12.2898 168.433 12.6667 168.263 13.1364C168.096 13.6023 168.013 14.1136 168.013 14.6705C168.013 15.2311 168.096 15.7443 168.263 16.2102C168.433 16.6761 168.693 17.0492 169.041 17.3295C169.393 17.6098 169.837 17.75 170.371 17.75ZM180.006 19.1761C179.161 19.1761 178.434 18.9848 177.824 18.6023C177.218 18.2159 176.752 17.6837 176.426 17.0057C176.1 16.3277 175.938 15.5511 175.938 14.6761C175.938 13.7898 176.104 13.0076 176.438 12.3295C176.771 11.6477 177.241 11.1155 177.847 10.733C178.453 10.3504 179.167 10.1591 179.989 10.1591C180.652 10.1591 181.242 10.2822 181.761 10.5284C182.28 10.7708 182.699 11.1117 183.017 11.5511C183.339 11.9905 183.53 12.5038 183.591 13.0909H181.938C181.847 12.6818 181.638 12.3295 181.312 12.0341C180.991 11.7386 180.559 11.5909 180.017 11.5909C179.544 11.5909 179.129 11.7159 178.773 11.9659C178.42 12.2121 178.146 12.5644 177.949 13.0227C177.752 13.4773 177.653 14.0152 177.653 14.6364C177.653 15.2727 177.75 15.822 177.943 16.2841C178.136 16.7462 178.409 17.1042 178.761 17.358C179.117 17.6117 179.536 17.7386 180.017 17.7386C180.339 17.7386 180.631 17.6799 180.892 17.5625C181.157 17.4413 181.379 17.2689 181.557 17.0455C181.739 16.822 181.866 16.553 181.938 16.2386H183.591C183.53 16.803 183.347 17.3068 183.04 17.75C182.733 18.1932 182.322 18.5417 181.807 18.7955C181.295 19.0492 180.695 19.1761 180.006 19.1761ZM191.947 12.4034L190.408 12.6761C190.343 12.4792 190.241 12.2917 190.101 12.1136C189.964 11.9356 189.779 11.7898 189.544 11.6761C189.309 11.5625 189.016 11.5057 188.663 11.5057C188.182 11.5057 187.781 11.6136 187.459 11.8295C187.137 12.0417 186.976 12.3163 186.976 12.6534C186.976 12.9451 187.084 13.1799 187.3 13.358C187.516 13.536 187.864 13.6818 188.345 13.7955L189.732 14.1136C190.535 14.2992 191.133 14.5852 191.527 14.9716C191.921 15.358 192.118 15.8598 192.118 16.4773C192.118 17 191.966 17.4659 191.663 17.875C191.364 18.2803 190.946 18.5985 190.408 18.8295C189.874 19.0606 189.254 19.1761 188.55 19.1761C187.572 19.1761 186.775 18.9678 186.158 18.5511C185.54 18.1307 185.161 17.5341 185.021 16.7614L186.663 16.5114C186.766 16.9394 186.976 17.2633 187.294 17.483C187.612 17.6989 188.027 17.8068 188.538 17.8068C189.095 17.8068 189.54 17.6913 189.874 17.4602C190.207 17.2254 190.374 16.9394 190.374 16.6023C190.374 16.3295 190.271 16.1004 190.067 15.9148C189.866 15.7292 189.557 15.589 189.141 15.4943L187.663 15.1705C186.849 14.9848 186.247 14.6894 185.857 14.2841C185.47 13.8788 185.277 13.3655 185.277 12.7443C185.277 12.2292 185.421 11.7784 185.709 11.392C185.997 11.0057 186.394 10.7045 186.902 10.4886C187.41 10.2689 187.991 10.1591 188.646 10.1591C189.589 10.1591 190.332 10.3636 190.874 10.7727C191.415 11.178 191.773 11.7216 191.947 12.4034Z" fill="#98A2B3"/>
<line x1="139.5" y1="2" x2="139.5" y2="25" stroke="#D6D6D6"/>
</svg>
